<svg xmlns="http://www.w3.org/2000/svg" viewBox="0 0 284.935 284.936" xml:space="preserve"><path d="M149.037 222.7 282.08 89.653c1.902-1.904 2.857-4.095 2.857-6.568 0-2.474-.955-4.664-2.857-6.567l-14.276-14.273c-1.903-1.906-4.09-2.855-6.567-2.855-2.478 0-4.664.949-6.567 2.855L142.466 174.448 30.26 62.244c-1.903-1.906-4.093-2.855-6.564-2.855-2.477 0-4.667.949-6.57 2.855L2.855 76.518C.95 78.42 0 80.61 0 83.085c0 2.473.95 4.663 2.854 6.567l133.044 133.042c1.902 1.902 4.093 2.854 6.567 2.854s4.664-.945 6.57-2.847z" xmlns="http://www.w3.org/2000/svg"/></svg>