<svg xmlns="http://www.w3.org/2000/svg" viewBox="0 0 368.8 368.8" xml:space="preserve"><path d="M286.187 229.2V127.6c0-41.6-25.6-77.2-62-91.6-.8-20-17.2-36-37.2-36s-36.8 16-37.2 36c-36.4 14.8-62 50.4-62 91.6v101.2c-24.4.8-44.4 20.8-44.4 45.6 0 25.2 20.4 45.6 45.6 45.6h41.2c4 27.6 28 48.8 56.4 48.8 28.8 0 52.4-21.2 56.4-48.8h36.8c25.2 0 45.6-20.4 45.6-45.6.8-23.2-16.8-42.4-39.2-45.2zm-99.2-212.8c8.8 0 16.4 6 19.2 14-6.4-1.2-12.8-2-19.2-2-6.8 0-13.2.8-19.2 2 2.8-8 10.4-14 19.2-14zm-82 111.2c0-45.2 36.8-82.4 82-82.4s82 36.8 82 82.4v101.2h-164V127.6zm82 224.8c-19.2 0-35.6-13.6-39.6-32h78.8c-3.6 18-19.6 32-39.2 32zm93.6-48.8h-191.2c-16 0-28.8-12.8-28.8-28.8s12.8-28.8 28.8-28.8h191.2c16 0 28.8 12.8 28.8 28.8 0 15.6-12.8 28.8-28.8 28.8z" xmlns="http://www.w3.org/2000/svg"/></svg>