<svg xmlns="http://www.w3.org/2000/svg" xml:space="preserve" viewBox="0 0 512 512"><path d="M437.02 74.98C388.668 26.629 324.381 0 256 0 187.62 0 123.333 26.628 74.981 74.98 26.629 123.333 0 187.62 0 256s26.629 132.667 74.981 181.02C123.333 485.372 187.62 512 256 512c68.381 0 132.668-26.629 181.02-74.98C485.371 388.668 512 324.38 512 256s-26.629-132.668-74.98-181.02zM256 482C131.383 482 30 380.617 30 256S131.383 30 256 30s226 101.383 226 226-101.383 226-226 226z" xmlns="http://www.w3.org/2000/svg"/><path d="M266.609 100.79C263.81 98 259.95 96.4 256 96.4s-7.82 1.6-10.61 4.39A15.111 15.111 0 0 0 241 111.4c0 3.95 1.6 7.82 4.39 10.61 2.79 2.79 6.66 4.39 10.61 4.39s7.81-1.6 10.609-4.39A15.13 15.13 0 0 0 271 111.4c0-3.95-1.601-7.82-4.391-10.61zM256 192.8c-8.284 0-15 6.716-15 15v192.801c0 8.284 6.716 15 15 15s15-6.716 15-15V207.8c0-8.284-6.716-15-15-15z" xmlns="http://www.w3.org/2000/svg"/></svg>