<svg xmlns="http://www.w3.org/2000/svg" viewBox="0 0 24 24" xml:space="preserve"><path xmlns="http://www.w3.org/2000/svg" d="M18.5 24h-13A2.503 2.503 0 0 1 3 21.5v-19C3 1.122 4.122 0 5.5 0h13C19.878 0 21 1.122 21 2.5v19c0 1.378-1.122 2.5-2.5 2.5zM5.5 1C4.673 1 4 1.673 4 2.5v19c0 .827.673 1.5 1.5 1.5h13c.827 0 1.5-.673 1.5-1.5v-19c0-.827-.673-1.5-1.5-1.5z"/><path xmlns="http://www.w3.org/2000/svg" d="M16.5 17h-3a.5.5 0 0 1-.5-.5v-9a.5.5 0 0 1 .5-.5h3a.5.5 0 0 1 .5.5v9a.5.5 0 0 1-.5.5zM14 16h2V8h-2zM10.5 17h-3a.5.5 0 0 1-.5-.5v-5a.5.5 0 0 1 .5-.5h3a.5.5 0 0 1 .5.5v5a.5.5 0 0 1-.5.5zM8 16h2v-4H8z"/><path xmlns="http://www.w3.org/2000/svg" d="M17.5 17h-11a.5.5 0 0 1 0-1h11a.5.5 0 0 1 0 1z"/></svg>